<?xml version="1.0" encoding="utf-8"?>
<!-- Generator: Adobe Illustrator 17.1.0, SVG Export Plug-In . SVG Version: 6.00 Build 0)  -->
<!DOCTYPE svg PUBLIC "-//W3C//DTD SVG 1.1//EN" "http://www.w3.org/Graphics/SVG/1.1/DTD/svg11.dtd">
<svg version="1.1" id="Layer_1" xmlns="http://www.w3.org/2000/svg" xmlns:xlink="http://www.w3.org/1999/xlink" x="0px" y="0px"
	 viewBox="0 0 500 500" enable-background="new 0 0 500 500" xml:space="preserve">
<g>
	<path fill="#BBBBBB" d="M250,1.8c137.3,0,249.6,112.4,249.2,249.5C498.8,388.6,387.1,500.2,250,500.2
		C112.6,500.1,0.4,387.8,0.8,250.7C1.2,113.3,112.8,1.8,250,1.8z M467.5,251.2c0.4-118.9-97.1-217-216.8-217.8
		C131.6,32.6,32.8,130.9,32.4,250.7C32,369.8,130.4,468.5,250,468.5C369.2,468.5,467,370.8,467.5,251.2z"/>
	<g>
		<path fill="#7B8084" d="M217.3,98.9c21.9,0,43.4,0,65.3,0c0,66.4,0,132.3,0,198.8c-21.6,0-43.3,0-65.3,0
			C217.3,231.5,217.3,165.4,217.3,98.9z"/>
		<path fill="#7B8084" d="M282.7,335.5c0,21.9,0,43.4,0,65.6c-21.8,0-43.4,0-65.5,0c0-21.8,0-43.4,0-65.6
			C238.9,335.5,260.4,335.5,282.7,335.5z"/>
	</g>
</g>
</svg>
