<?xml version="1.0" encoding="utf-8"?>
<!-- Generator: Adobe Illustrator 17.1.0, SVG Export Plug-In . SVG Version: 6.00 Build 0)  -->
<!DOCTYPE svg PUBLIC "-//W3C//DTD SVG 1.1//EN" "http://www.w3.org/Graphics/SVG/1.1/DTD/svg11.dtd">
<svg version="1.1" id="Layer_1" xmlns="http://www.w3.org/2000/svg" xmlns:xlink="http://www.w3.org/1999/xlink" x="0px" y="0px"
	 viewBox="0 0 500 500" enable-background="new 0 0 500 500" xml:space="preserve">
<g>
	<g>
		<defs>
			<circle id="SVGID_1_" cx="250" cy="251" r="242.7"/>
		</defs>
		<clipPath id="SVGID_2_">
			<use xlink:href="#SVGID_1_"  overflow="visible"/>
		</clipPath>
		<g clip-path="url(#SVGID_2_)">
			<text transform="matrix(1 0 0 1 -44 -5.1465)" fill="#BBBBBB" font-family="'Avenir-Heavy'" font-size="50.0623">10101101101010110101011010</text>
			<text transform="matrix(1 0 0 1 -44 54.9535)" fill="#BBBBBB" font-family="'Avenir-Heavy'" font-size="50.0623">01011011011011010101010101</text>
			<text transform="matrix(1 0 0 1 -44 114.9535)" fill="#BBBBBB" font-family="'Avenir-Heavy'" font-size="50.0623">10010010000100100111100011</text>
			<text transform="matrix(1 0 0 1 -44 175.0535)" fill="#BBBBBB" font-family="'Avenir-Heavy'" font-size="50.0623">00010010011100110100101010</text>
			<text transform="matrix(1 0 0 1 -44 235.1535)" fill="#BBBBBB" font-family="'Avenir-Heavy'" font-size="50.0623">00101001001001001010110100</text>
			<text transform="matrix(1 0 0 1 -44 295.2535)" fill="#BBBBBB" font-family="'Avenir-Heavy'" font-size="50.0623">10101101101010110101011010</text>
			<text transform="matrix(1 0 0 1 -44 355.2535)" fill="#BBBBBB" font-family="'Avenir-Heavy'" font-size="50.0623">01011011011011010101010101</text>
			<text transform="matrix(1 0 0 1 -44 415.3535)" fill="#BBBBBB" font-family="'Avenir-Heavy'" font-size="50.0623">10010010000100100111100011</text>
			<text transform="matrix(1 0 0 1 -44 475.4535)" fill="#BBBBBB" font-family="'Avenir-Heavy'" font-size="50.0623">00010010011100110100101010</text>
			<text transform="matrix(1 0 0 1 -44 535.5535)" fill="#BBBBBB" font-family="'Avenir-Heavy'" font-size="50.0623">00101001001001001010110100</text>
		</g>
	</g>
</g>
<g>
	<path fill="#BBBBBB" d="M250,1.8c137.3,0,249.6,112.4,249.2,249.5C498.8,388.6,387.1,500.2,250,500.2
		C112.6,500.1,0.4,387.8,0.8,250.7C1.2,113.3,112.8,1.8,250,1.8z M467.5,251.2c0.4-118.9-97.1-217-216.8-217.8
		C131.6,32.6,32.8,130.9,32.4,250.7C32,369.8,130.4,468.5,250,468.5C369.2,468.5,467,370.8,467.5,251.2z"/>
	<g opacity="0">
		<path fill="#7B8084" d="M217.3,98.9c21.9,0,43.4,0,65.3,0c0,66.4,0,132.3,0,198.8c-21.6,0-43.3,0-65.3,0
			C217.3,231.5,217.3,165.4,217.3,98.9z"/>
		<path fill="#7B8084" d="M282.7,335.5c0,21.9,0,43.4,0,65.6c-21.8,0-43.4,0-65.5,0c0-21.8,0-43.4,0-65.6
			C238.9,335.5,260.4,335.5,282.7,335.5z"/>
	</g>
</g>
<g>
	<path fill="#7B8084" d="M338.8,250.1c0,18.7-1.9,35.7-5.6,51.1c-3.7,15.4-9.4,28.6-17,39.6c-7.6,11-17,19.6-28.3,25.6
		c-11.3,6-24.5,9.1-39.7,9.1c-13.1,0-25-2.5-35.7-7.4c-10.7-4.9-19.9-12.5-27.5-22.7c-7.6-10.2-13.5-23.2-17.6-39.1
		c-4.1-15.8-6.2-34.6-6.2-56.3c0-18.7,1.9-35.8,5.7-51.2c3.8-15.5,9.5-28.7,17-39.7c7.5-11,17-19.6,28.3-25.6
		c11.3-6,24.6-9.1,39.6-9.1c13.1,0,25,2.5,35.7,7.4c10.7,4.9,19.9,12.5,27.5,22.8c7.6,10.3,13.5,23.3,17.6,39.2
		C336.7,209.7,338.8,228.4,338.8,250.1z M194.1,249c0,3.9,0,7.7,0.1,11.6c0.1,3.9,0.3,7.6,0.7,11.2l103.4-76.5
		c-1.9-6.4-4.2-12.2-7.1-17.4c-2.9-5.2-6.3-9.7-10.3-13.6c-4-3.8-8.5-6.8-13.6-8.9c-5.1-2.1-10.8-3.2-17.2-3.2
		c-8.5,0-16.2,2.1-23.1,6.2c-6.9,4.1-12.8,10.3-17.7,18.4c-4.9,8.2-8.6,18.3-11.2,30.3C195.4,219.2,194.1,233.1,194.1,249z
		 M305.9,251.2c0-4.2-0.2-8.4-0.5-12.6c-0.3-4.2-0.7-8.3-1-12.2L201,303.2c1.9,6.5,4.2,12.5,7.1,17.9c2.9,5.5,6.3,10.2,10.4,14.1
		c4,3.9,8.7,7,13.8,9.2c5.2,2.2,11.1,3.3,17.7,3.3c8.5,0,16.2-2.1,23.1-6.2c6.9-4.1,12.8-10.2,17.7-18.3c4.9-8.1,8.6-18.2,11.2-30.2
		C304.6,281,305.9,267,305.9,251.2z"/>
</g>
</svg>
