<?xml version="1.0" encoding="utf-8"?>
<!-- Generator: Adobe Illustrator 17.1.0, SVG Export Plug-In . SVG Version: 6.00 Build 0)  -->
<!DOCTYPE svg PUBLIC "-//W3C//DTD SVG 1.1//EN" "http://www.w3.org/Graphics/SVG/1.1/DTD/svg11.dtd">
<svg version="1.1" id="Layer_1" xmlns="http://www.w3.org/2000/svg" xmlns:xlink="http://www.w3.org/1999/xlink" x="0px" y="0px"
	 viewBox="0 0 500 500" enable-background="new 0 0 500 500" xml:space="preserve">
<g>
	<path fill="#293B49" d="M251,1.8c137.3,0,249.6,112.4,249.2,249.5C499.8,388.6,388.1,500.2,251,500.2
		C113.6,500.1,1.4,387.8,1.8,250.7C2.2,113.3,113.8,1.8,251,1.8z M450.5,251.2c0.4-109.1-89.1-199-198.9-199.8
		C142.4,50.7,51.8,140.8,51.4,250.7C51,360,141.3,450.5,251,450.5C360.3,450.5,450,360.9,450.5,251.2z"/>
</g>
<rect x="143.3" y="259.2" transform="matrix(0.6487 -0.761 0.761 0.6487 -192.7655 240.8585)" fill="#939CA3" width="42.4" height="140"/>
<rect x="266.4" y="109.6" transform="matrix(0.761 0.6487 -0.6487 0.761 238.6149 -123.9815)" fill="#939CA3" width="42.4" height="304.6"/>
</svg>
